<?xml version="1.0" encoding="utf-8"?>
<!-- Generator: Adobe Illustrator 28.0.0, SVG Export Plug-In . SVG Version: 6.00 Build 0)  -->
<svg version="1.1" id="Layer_1" xmlns="http://www.w3.org/2000/svg" xmlns:xlink="http://www.w3.org/1999/xlink" x="0px" y="0px"
	 viewBox="0 0 792 612" style="enable-background:new 0 0 792 612;" xml:space="preserve">
<style type="text/css">
	.st0{fill:#00853F;}
</style>
<g>
	<path class="st0" d="M484.49,251.98h7.97l1.9-9.18h-7.98l2.11-10.16h-11.7l-6.08,29.39c-0.35,1.66-0.5,3.03-0.45,4.18
		c0.06,1.42,0.6,2.72,1.62,3.88c0.92,1.04,1.94,1.78,3.02,2.2c1.02,0.4,2.28,0.6,3.82,0.6h9.09l1.83-8.81H485
		c-1.15,0-2.01-0.2-2.44-0.58c-0.15-0.13-0.39-0.34-0.23-1.12L484.49,251.98z"/>
	<polygon class="st0" points="289.9,232.39 287.88,242.12 300.54,242.12 302.56,232.39 	"/>
	<path class="st0" d="M328.42,258.45l7.81,14.19h14.6l-9.02-15.87c1.78-0.99,3.33-2.21,4.13-2.9c1.63-1.4,3.76-4.69,4.35-7.56
		c0.8-3.84,0.1-7.15-2.08-9.85c-2.43-3-7.11-4.07-10.37-4.07h-29.81l-2.01,9.73h12.89h1.46l10.67-0.03c2.05,0,3.57,0.35,4.51,1.04
		c0.5,0.37,0.93,0.88,0.68,2.1c-0.23,1.09-1.07,1.99-2.57,2.74c-1.44,0.72-2.91,1.07-4.48,1.07h-11.65l0.92-3.95h-13.05l-5.82,27.54
		h2.21h9.36h1.46l2.94-14.19H328.42z"/>
	<polygon class="st0" points="287.36,245.1 281.55,272.64 294.28,272.64 300.03,245.1 	"/>
	<path class="st0" d="M384.8,246.39c-3.04-2.63-7.49-3.96-13.21-3.96c-5.08,0-9.71,1.19-13.77,3.54c-4.7,2.69-7.58,6.41-8.54,11.08
		c-1.19,5.73,0.09,10.13,3.8,13.07c3.01,2.37,7.48,3.58,13.3,3.58c5.33,0,9.94-1.17,13.71-3.46c4.2-2.56,6.82-6.2,7.77-10.82
		l0.33-1.54C389.17,253.05,388.04,249.19,384.8,246.39 M374.84,257.12c-0.51,2.44-1.51,4.36-2.98,5.7c-1.44,1.3-3.29,1.94-5.68,1.94
		c-1.98,0-3.41-0.58-4.36-1.76c-0.96-1.19-1.21-2.79-0.77-4.9c0.39-1.89,1.35-3.41,2.92-4.63c1.6-1.25,3.38-1.85,5.45-1.85
		c2.13,0,3.64,0.52,4.58,1.6C374.9,254.25,375.18,255.49,374.84,257.12"/>
	<path class="st0" d="M466.12,246.39c-3.04-2.63-7.49-3.96-13.21-3.96c-5.08,0-9.71,1.19-13.78,3.54c-4.7,2.69-7.58,6.41-8.54,11.08
		c-1.19,5.73,0.09,10.13,3.8,13.07c3.01,2.37,7.49,3.58,13.3,3.58c5.33,0,9.94-1.17,13.71-3.46c4.2-2.56,6.82-6.2,7.77-10.82
		l0.32-1.55C470.49,253.05,469.36,249.19,466.12,246.39 M456.96,257.12c-0.52,2.48-1.49,4.34-2.98,5.7c-1.44,1.3-3.3,1.94-5.69,1.94
		c-1.98,0-3.41-0.58-4.36-1.76c-0.96-1.19-1.21-2.79-0.77-4.9c0.39-1.89,1.34-3.41,2.92-4.63c1.6-1.25,3.38-1.85,5.44-1.85
		c2.13,0,3.63,0.52,4.58,1.6C457.02,254.25,457.3,255.49,456.96,257.12"/>
	<path class="st0" d="M425.15,246.37c-3.15-2.62-7.59-3.95-13.19-3.95c-2.15,0-4.34,0.27-6.33,0.69l2.54-10.72h-12.42l-4.61,20.69
		c-0.15,0.71-1.46,6.97-1.43,9.47c0.04,2.96,1.4,5.71,3.73,7.57c3.01,2.37,7.48,3.58,13.3,3.58c5.33,0,9.93-1.17,13.7-3.46
		c4.2-2.56,6.82-6.2,7.77-10.82l0,0.06C428.3,259.13,430.27,250.61,425.15,246.37 M416.01,257.12c-0.5,2.45-1.51,4.36-2.99,5.7
		c-1.44,1.3-3.29,1.94-5.68,1.94c-1.99,0-3.41-0.58-4.36-1.76c-0.22-0.26-0.24-0.66-0.23-1.59c0.02-1.49,0.9-5.3,1.31-6.28
		c0.36-0.84,0.55-1.27,1.06-1.67c1.59-1.25,3.37-1.85,5.43-1.85c2.14,0,3.64,0.52,4.59,1.6
		C416.08,254.25,416.34,255.49,416.01,257.12"/>
	<path class="st0" d="M500.33,235.91c0,0.92-0.33,1.7-0.98,2.36c-0.65,0.65-1.44,0.98-2.35,0.98c-0.92,0-1.7-0.33-2.35-0.98
		c-0.65-0.65-0.98-1.44-0.98-2.36c0-0.91,0.33-1.69,0.98-2.35c0.65-0.65,1.44-0.98,2.35-0.98c0.92,0,1.7,0.33,2.35,0.98
		C500,234.21,500.33,235,500.33,235.91 M499.86,235.91c0-0.79-0.28-1.47-0.84-2.02c-0.56-0.56-1.24-0.84-2.03-0.84
		c-0.79,0-1.46,0.28-2.03,0.85c-0.56,0.56-0.84,1.23-0.84,2.02c0,0.79,0.28,1.47,0.84,2.03c0.56,0.56,1.23,0.84,2.03,0.84
		c0.79,0,1.46-0.28,2.03-0.84C499.58,237.37,499.86,236.69,499.86,235.91 M498.58,237.86h-0.63l-0.75-1.67h-1.08v1.67h-0.58v-3.89
		h1.65c0.44,0,0.78,0.11,1,0.34c0.22,0.23,0.33,0.48,0.33,0.76c0,0.21-0.06,0.4-0.18,0.59c-0.12,0.19-0.31,0.32-0.56,0.41
		L498.58,237.86z M496.12,235.72h1.01c0.27,0,0.46-0.06,0.59-0.19c0.13-0.13,0.19-0.29,0.19-0.48c0-0.2-0.07-0.35-0.2-0.45
		c-0.14-0.1-0.31-0.16-0.51-0.16h-1.07V235.72z"/>
</g>
</svg>
